<?xml version="1.0" encoding="utf-8"?>
<!-- Generator: Adobe Illustrator 24.3.0, SVG Export Plug-In . SVG Version: 6.00 Build 0)  -->
<svg version="1.1" id="Layer_1" xmlns="http://www.w3.org/2000/svg" xmlns:xlink="http://www.w3.org/1999/xlink" x="0px" y="0px"
	 viewBox="0 0 512 512" style="enable-background:new 0 0 512 512;" xml:space="preserve">
<style type="text/css">
	.st0{fill:#BBAD62;}
</style>
<g id="Out_line">
	<path class="st0" d="M493.7,266.3l-15.6-15.6c-12.9-12.9-29.3-21.9-47.1-25.8c-2.1-5.1-4.5-10-7.3-14.8
		c-1.1-10.6-5.3-20.6-11.9-28.9c11.8-28.6-1.9-61.3-30.5-73c-6.8-2.8-14-4.2-21.3-4.2c-8.6,0-17.2,2-24.9,5.9
		c1.5-23.8-6-47.3-20.8-65.9l-20-25c-2.8-3.5-7.8-4-11.2-1.2c-0.5,0.4-0.9,0.8-1.2,1.2l-20,25c-6.7,8.4-12,17.9-15.6,28.1
		c-6.1-0.2-12.2,0-18.3,0.6C215.2,67,201.5,64,187.7,64H168c-4.4,0-8,3.6-8,8v22.1c0,2.9,0.1,5.9,0.4,8.8
		c-18.6,16.7-31.7,38.7-37.3,63.1l0.5,0.1c-11.4,14.9-14.6,34.4-8.5,52.1l-25.9,134c-4.1-0.6-7.9,2-8.9,6l-6.9,27.7l-19.8,6.6
		c-4.2,1.4-6.5,5.9-5.1,10.1c0.4,1.2,1.1,2.2,1.9,3.1l2.8,2.8l-13.6,6.8c-21,10.5-29.6,36.1-19.1,57.2s36.1,29.6,57.2,19.1
		c8.2-4.1,14.9-10.8,19.1-19.1l6.8-13.6l2.8,2.8c3.1,3.1,8.2,3.1,11.3,0c0.9-0.9,1.5-1.9,1.9-3.1l6.6-19.8l27.7-6.9
		c4-1,6.6-4.8,6-8.9L319.7,392c15.9-0.1,31.7-3.3,46.3-9.5l-0.1-0.1c11.7,7,24.8,11.3,38.4,12.9l31.9,3.5c4.4,0.5,8.3-2.7,8.8-7.1
		c0.1-0.6,0.1-1.2,0-1.8l-3.5-31.9c-1.6-14.1-6.2-27.7-13.7-39.7c0.3-0.1,0.7-0.1,1-0.2c19.3-3.4,37.1-12.7,50.9-26.6l13.9-13.9
		C496.8,274.5,496.8,269.5,493.7,266.3z M296.2,152.7c-21.7,22-21.5,57.4,0.4,79.1c6.4,6.3,14.2,11,22.8,13.7
		c-4.9,1.7-10.1,2.5-15.4,2.5c-1.2,0-2.4-0.1-3.6-0.1c-6.9-4.1-14.5-6.7-22.5-7.5c-2-1.3-3.9-2.7-5.6-4.2
		c12.2-20.8,9.6-47.2-6.5-65.2C273.3,161.2,284.1,154.7,296.2,152.7z M312,344c-2.7,0-5.4-0.5-8-1.4c12.5-4.4,19-18.1,14.6-30.6
		c-1.4-3.8-3.7-7.3-6.7-10c-0.1-2-0.4-4.1-0.9-6.1c0.3,0,0.7,0,1,0c13.3,0,24,10.7,24,24S325.3,344,312,344z M152,232
		c0-0.9,0-1.8,0.1-2.8c5,5.6,11.7,9.3,19.1,10.4c7.6,18,27.2,27.9,46.2,23.2c-17,14-42.2,11.6-56.3-5.4
		C155.2,250.3,152,241.3,152,232z M208,200c13.3,0,24,10.7,24,24c0,13.3-10.7,24-24,24c-2.7,0-5.4-0.5-8-1.4
		c12.5-4.4,19-18.1,14.6-30.6c-1.4-3.8-3.7-7.3-6.7-10c-0.1-2-0.4-4.1-0.9-6.1C207.3,200,207.7,200,208,200z M192,216
		c4.4,0,8,3.6,8,8s-3.6,8-8,8s-8-3.6-8-8C184,219.6,187.6,216,192,216z M168.1,221.9c-7.7-4.4-10.4-14.1-6-21.8
		c4.4-7.7,14.1-10.4,21.8-6c2.5,1.4,4.6,3.5,6,6C178.3,201.1,169.1,210.3,168.1,221.9z M248.5,298.3c-4.3,6.8-7,14.4-8,22.3
		c-13.6-17.4-10.5-42.5,6.9-56.1c17.4-13.6,42.5-10.5,56.1,6.9c2.1,2.7,3.9,5.6,5.2,8.8c-2.1,0.2-4.2,0.5-6.3,1
		c-12.6-12.4-32.8-12.2-45.2,0.4C252.7,286.1,249.7,292,248.5,298.3L248.5,298.3z M296,328c-4.4,0-8-3.6-8-8s3.6-8,8-8s8,3.6,8,8
		C304,324.4,300.4,328,296,328z M280,288c5.8,0,11.1,3.1,13.9,8.1c-11.6,1-20.8,10.2-21.8,21.8c-7.7-4.4-10.4-14.1-6-21.8
		C268.9,291.1,274.2,288,280,288z M336,232c-22.1,0-40-17.9-40-40c0-9.3,3.2-18.3,9.1-25.4c-4.6,19,5.2,38.6,23.2,46.2
		c1.1,7.4,4.8,14.1,10.4,19.1C337.8,232,336.9,232,336,232z M344,200c-4.4,0-8-3.6-8-8s3.6-8,8-8s8,3.6,8,8
		C352,196.4,348.4,200,344,200z M360,224c-5.8,0-11.1-3.1-13.9-8.1c11.6-1,20.8-10.2,21.8-21.8c7.7,4.4,10.4,14.1,6,21.8
		C371.1,220.9,365.8,224,360,224z M368,177c-2-0.5-4-0.8-6.1-0.9c-8.8-9.9-23.9-10.8-33.9-2c-3,2.7-5.3,6.1-6.7,10
		c-4.4-12.5,2.1-26.2,14.6-30.6c12.5-4.4,26.2,2.1,30.6,14.6c0.9,2.6,1.4,5.3,1.4,8C368,176.3,368,176.7,368,177z M264,208
		c0,12.8-6.2,24.9-16.6,32.4c0.4-2.8,0.6-5.6,0.6-8.4c0-1.4-0.1-2.9-0.2-4.3c0.1-1.2,0.2-2.4,0.2-3.7c0-16.5-10.2-31.3-25.6-37.3
		c-1.5-6.3-4.2-12.2-7.8-17.6c21.5-5.2,43.1,8,48.2,29.5C263.6,201.7,264,204.8,264,208z M204.7,184.1c-2.1,0.2-4.2,0.5-6.3,1
		c-12.6-12.4-32.8-12.2-45.2,0.4c-4.5,4.6-7.5,10.4-8.7,16.7c-4.3,6.8-7,14.4-8,22.3c-13.6-17.4-10.5-42.5,6.9-56.1
		s42.5-10.5,56.1,6.9C201.6,178,203.4,181,204.7,184.1L204.7,184.1z M192,288c9,0,17.9-2.2,25.9-6.4c-3.8,14.5-1.7,29.9,5.9,42.8
		l-36.7-36.7C188.7,287.9,190.3,288,192,288z M233.2,356.5c12.1,12.1,26.6,21.6,42.6,27.6l-127.7,24.7L119.3,380l68.7-68.7
		L233.2,356.5z M296,368c-22.1,0-40-17.9-40-40c0-0.9,0-1.8,0.1-2.8c5,5.6,11.7,9.3,19.1,10.4c7.6,18,27.2,27.9,46.2,23.2
		C314.3,364.8,305.3,368,296,368z M351.8,323.7c0.1-1.2,0.2-2.4,0.2-3.7c0-16.5-10.2-31.3-25.6-37.3c-1.5-6.3-4.2-12.2-7.8-17.6
		c21.5-5.2,43.1,8,48.2,29.5c3.8,15.8-2.3,32.3-15.5,41.8c0.4-2.8,0.6-5.6,0.6-8.4C352,326.6,351.9,325.1,351.8,323.7z M368,256
		c-8.9,0-17.6-3-24.6-8.5c7.9-1,15.6-3.8,22.3-8c17.4-3.1,28.9-19.8,25.8-37.1c-1.1-6.3-4.2-12.2-8.7-16.7c0.5-2.1,0.9-4.2,1-6.3
		c20.3,8.8,29.6,32.3,20.9,52.6C398.4,246.5,384,256,368,256z M400,160c0,3.2-0.4,6.3-1.1,9.4c-5.4-3.6-11.3-6.2-17.6-7.8
		c-6-15.4-20.8-25.6-37.3-25.6c-1.2,0-2.5,0.1-3.7,0.2c-1.4-0.1-2.9-0.2-4.3-0.2c-2.8,0-5.6,0.2-8.4,0.6c12.9-17.9,37.9-22,55.8-9.1
		C393.8,135,400,147.1,400,160z M274.2,54L288,36.8L301.8,54c15.9,19.9,21.4,46.1,14.8,70.7c-2.9,3.5-5.3,7.4-7.3,11.5
		c-1.8-0.1-3.5-0.2-5.3-0.2c-2.7,0-5.3,0.2-8,0.5V80h-16v60.7c-3.9,1.6-7.6,3.5-11.1,5.8C250.8,117.7,252.9,80.6,274.2,54z M176,80
		h11.7c19.5,0,38.4,7.1,53,20.1c-0.6,13.9,1.9,27.7,7.2,40.5l-35.8-35.8l-11.3,11.3l37.8,37.8c-11.2-3-23.1-2.5-33.9,1.5
		c-18.1-15.2-28.6-37.7-28.7-61.4V80z M164.1,121.6c2.4,8,5.8,15.6,10.2,22.7c-9.7-1.1-19.4,0.3-28.4,4.2
		C150.6,138.7,156.7,129.6,164.1,121.6z M129.9,241c6.1,14.1,14.7,26.9,25.6,37.8l21.2,21.2L108,368.7l-4.9-4.9l24.2-125.3
		C128.2,239.4,129,240.2,129.9,241z M46.7,429.6l18.4-9.2l0.3,0.3l-29.5,46.4c-7.6-12.6-3.5-28.9,9.1-36.5
		C45.5,430.2,46.1,429.9,46.7,429.6z M82.4,465.3C76.1,478,61,483.4,48,477.8l29-45.5l14.6,14.6L82.4,465.3z M118.1,424.2
		c-2.7,0.7-4.8,2.6-5.6,5.2l-3.9,11.7l-37.7-37.7l11.7-3.9c2.6-0.9,4.6-3,5.2-5.6l4.6-18.3l44,44L118.1,424.2z M325.1,375.8
		c6.2-3.8,11.7-8.8,16-14.7c2.9,3.5,6.1,6.9,9.6,10C342.4,373.7,333.8,375.3,325.1,375.8z M406.1,379.3
		c-19.7-2.2-37.8-11.6-50.9-26.4c6.8-3.8,12.8-9,17.5-15.3l19.2,19.2l11.3-11.3L380.6,323c0.9-2.5,1.7-5.2,2.2-7.8
		c8.6,2.7,17.5,4.2,26.5,4.5c9,11.6,14.7,25.5,16.3,40.2l2.4,21.9L406.1,379.3z M468.4,280.3c-22.3,22.1-55.3,29.2-84.7,18.3
		c-0.6-6.4-2.4-12.7-5.1-18.6H432v-16h-35.2c9.7-5.9,17.5-14.5,22.2-24.9c18.1,2,34.9,10.1,47.8,22.9l9.9,9.9L468.4,280.3z"/>
</g>
</svg>
