<?xml version="1.0" encoding="utf-8"?>
<!-- Generator: Adobe Illustrator 24.3.0, SVG Export Plug-In . SVG Version: 6.00 Build 0)  -->
<svg version="1.1" id="Capa_1" xmlns="http://www.w3.org/2000/svg" xmlns:xlink="http://www.w3.org/1999/xlink" x="0px" y="0px"
	 viewBox="0 0 432 432" style="enable-background:new 0 0 432 432;" xml:space="preserve">
<style type="text/css">
	.st0{fill:#BBAD62;}
</style>
<g>
	<g>
		<path class="st0" d="M384,12v16h20.7l-20.2,20.2c-21.5-17.4-53.5-16.2-73.6,3.5L272,89.5l-38.8-37.8c-21.4-20.9-56.2-20.9-77.6,0
			l-11.7,11.4c-10.2,10-15.9,23.4-15.9,37.5c0,14.2,5.6,27.6,15.9,37.7l16,15.6l-16,15.6l-38.8-37.8c-21.4-20.9-56.2-20.9-77.6,0
			l-11.7,11.4C5.7,153.1,0,166.5,0,180.7c0,14.2,5.7,27.6,15.9,37.7l120,116.9l0,36.7H112v16h24l0,32l16,0l0-32h24v-16h-24.1l0-36.5
			l97.1-94.7l23,22.4L400,138.4l0,0c10.3-10.1,15.9-23.5,15.9-37.7c0-14.2-5.7-27.5-15.9-37.6l-4-3.8L416,39.3V60h16V12L384,12
			L384,12z M144,320.8L27.1,206.9c-7.2-7-11.1-16.3-11.1-26.2s3.9-19.2,11.1-26.2l11.7-11.4c7.6-7.4,17.6-11.2,27.6-11.2
			s20,3.7,27.6,11.2l50,48.7l27.4-26.7l66.1,64.4L144,320.8z M400,100.6c0,9.9-3.9,19.2-11.1,26.3L272,240.8l-11.5-11.2l0,0
			l-61.7-60.1l-43.7-42.6c-7.2-7.1-11.1-16.4-11.1-26.3c0-9.9,3.9-19.2,11.1-26.1l11.7-11.4c7.6-7.5,17.6-11.2,27.6-11.2
			s20,3.7,27.6,11.2l50,48.7l50-48.7c15.2-14.9,40-14.9,55.2,0l11.7,11.3C396,81.5,399.9,90.8,400,100.6z"/>
	</g>
</g>
<g>
	<g>
		<rect x="88" y="228" class="st0" width="16" height="16"/>
	</g>
</g>
<g>
	<g>
		<rect x="112" y="252" class="st0" width="16" height="16"/>
	</g>
</g>
<g>
	<g>
		<rect x="352" y="76" class="st0" width="16" height="16"/>
	</g>
</g>
<g>
	<g>
		<rect x="336" y="108" class="st0" width="16" height="16"/>
	</g>
</g>
<g>
	<g>
		<rect x="280" y="300" class="st0" width="16" height="24"/>
	</g>
</g>
<g>
	<g>
		<rect x="320" y="260" class="st0" width="24" height="16"/>
	</g>
</g>
<g>
	<g>
		
			<rect x="316" y="287" transform="matrix(0.7071 -0.7071 0.7071 0.7071 -120.0789 318.1093)" class="st0" width="16" height="33.9"/>
	</g>
</g>
</svg>
