<svg id="Capa_1" enable-background="new 0 0 512 512" height="512" viewBox="0 0 512 512" width="512" xmlns="http://www.w3.org/2000/svg"><g><path d="m252.243 270.991c1.162.672 2.459 1.009 3.757 1.009s2.595-.336 3.757-1.009c2.798-1.62 68.528-40.233 68.538-89.924 0-24.266-19.74-44.008-44.004-44.008-10.478 0-20.43 3.679-28.291 10.292-7.86-6.614-17.813-10.292-28.291-10.292-24.264 0-44.004 19.742-44.004 44.01.01 49.689 65.74 88.303 68.538 89.922zm-24.534-118.932c8.747 0 16.94 3.892 22.48 10.678 1.424 1.745 3.558 2.757 5.81 2.757s4.386-1.012 5.81-2.757c5.54-6.786 13.734-10.678 22.48-10.678 15.993 0 29.004 13.013 29.004 29.007-.007 35.02-44.009 66.04-57.299 74.608-13.302-8.558-57.283-39.514-57.29-74.607.002-15.995 13.013-29.008 29.005-29.008z"/><path d="m256 302c58.449 0 106-47.551 106-106s-47.551-106-106-106-106 47.551-106 106 47.551 106 106 106zm0-197c50.178 0 91 40.822 91 91s-40.822 91-91 91-91-40.822-91-91 40.822-91 91-91z"/><path d="m256 0c-108.075 0-196 87.925-196 196 0 41.964 13.083 81.992 37.834 115.756l140.03 191.063c4.254 5.749 11.033 9.181 18.136 9.181s13.882-3.432 18.155-9.208l140.011-191.036c24.751-33.764 37.834-73.792 37.834-115.756 0-108.075-87.925-196-196-196zm146.068 302.888c-.014.019-138.628 189.149-139.991 191.01-1.459 1.971-3.674 3.102-6.077 3.102s-4.618-1.131-6.057-3.076c-1.383-1.887-139.997-191.017-140.011-191.036-22.853-31.174-34.932-68.136-34.932-106.888 0-99.804 81.196-181 181-181s181 81.196 181 181c0 38.752-12.079 75.714-34.932 106.888z"/><path d="m256 60c-30.928 0-60.074 10.121-84.288 29.268-3.249 2.569-3.8 7.286-1.231 10.535 2.569 3.25 7.287 3.799 10.535 1.231 21.538-17.032 47.467-26.034 74.984-26.034 66.72 0 121 54.28 121 121s-54.28 121-121 121-121-54.28-121-121c0-27.517 9.002-53.446 26.034-74.985 2.569-3.249 2.018-7.966-1.231-10.535-3.249-2.57-7.966-2.019-10.535 1.231-19.147 24.214-29.268 53.361-29.268 84.289 0 74.991 61.009 136 136 136s136-61.009 136-136-61.009-136-136-136z"/></g></svg>